# xmcd
#
# Track frame offsets:
#	150
#	4630
#	20482
#	33143
#	57839
#	71558
#	88171
#	102656
#	116184
#	127958
#	141895
#	155062
#	169878
#	184404
#
# Disc length: 2555 seconds
# Revision: 0
# Processed by: cddbd v1.5.2PL0 Copyright (c) Steve Scherf et al.
# Submitted via: dBpowerAMP V12.0
#
DISCID=c409f90e
DTITLE=Renée Martel - La Fille de son Père
DYEAR=2014
DGENRE=Country
TTITLE0=Pour toi Renée (ouverture avec Marcel Martel)
TTITLE1=La fille de son père
TTITLE2=Lettre et souvenirs
TTITLE3=Ne ris pas de mon cœur 
TTITLE4=Un coin du ciel
TTITLE5=Hello Central (en duo avec Maxime Landry)
TTITLE6=Allo ma prairie
TTITLE7=Adieu mon bel amour
TTITLE8=Sois fidèle et sincère (en duo avec Georges Hamel)
TTITLE9=Toi seul mon bel amour
TTITLE10=Prisonnière de ton cœur
TTITLE11=Cueillir vos lèvres
TTITLE12=Bonsoir chérie
TTITLE13=Mon petit bateau de bois (fermeture avec Marcel Martel) 
EXTD=
EXTT0=
EXTT1=
EXTT2=
EXTT3=
EXTT4=
EXTT5=
EXTT6=
EXTT7=
EXTT8=
EXTT9=
EXTT10=
EXTT11=
EXTT12=
EXTT13=
PLAYORDER=
